<?xml version="1.0" encoding="UTF-8"?>
<svg width="400" height="300" viewBox="0 0 400 300" fill="none" xmlns="http://www.w3.org/2000/svg">
  <rect width="400" height="300" fill="#E5E7EB"/>
  <path d="M200 150C211.046 150 220 141.046 220 130C220 118.954 211.046 110 200 110C188.954 110 180 118.954 180 130C180 141.046 188.954 150 200 150Z" fill="#9CA3AF"/>
  <path d="M240 190C240 168.909 222.091 150 200 150C177.909 150 160 168.909 160 190H240Z" fill="#9CA3AF"/>
  <rect x="120" y="80" width="160" height="140" rx="10" stroke="#9CA3AF" stroke-width="4"/>
  <path d="M120 200L160 160L200 200" stroke="#9CA3AF" stroke-width="4"/>
  <path d="M240 180L280 140" stroke="#9CA3AF" stroke-width="4"/>
</svg>
