<?xml version="1.0" encoding="UTF-8"?>
<svg width="40px" height="40px" viewBox="0 0 40 40" version="1.1" xmlns="http://www.w3.org/2000/svg">
    <g stroke="none" stroke-width="1" fill="none" fill-rule="evenodd">
        <circle fill="#2A6F97" cx="20" cy="20" r="20"></circle>
        <path d="M28,16 L28,14 C28,13.4477153 27.5522847,13 27,13 L13,13 C12.4477153,13 12,13.4477153 12,14 L12,26 C12,26.5522847 12.4477153,27 13,27 L15,27 L15,25 L14,25 L14,15 L26,15 L26,16 L28,16 Z M17,27 L23,27 L23,25 L17,25 L17,27 Z M25,27 L27,27 C27.5522847,27 28,26.5522847 28,26 L28,18 L25,18 L25,27 Z M20,17 C18.8954305,17 18,17.8954305 18,19 C18,20.1045695 18.8954305,21 20,21 C21.1045695,21 22,20.1045695 22,19 C22,17.8954305 21.1045695,17 20,17 Z" fill="#FFFFFF" fill-rule="nonzero"></path>
    </g>
</svg>
